sfk_cyclingleg_x_-0.09_y_-0.06_states
version=1
nRows=7
nColumns=53
inDegrees=yes

# SIMM Motion File Header:
name sfk_cyclingleg_x_-0.09_y_-0.06_states
datacolumns 53
datarows 7
otherdata 1
range 0.23401565 0.23499178
endheader
time	/jointset/bb/crank_angle/value	/jointset/bb/crank_angle/speed	/jointset/spindle/pedal_angle_r/value	/jointset/spindle/pedal_angle_r/speed	/jointset/ground_pelvis/pelvis_tilt/value	/jointset/ground_pelvis/pelvis_tilt/speed	/jointset/ground_pelvis/pelvis_list/value	/jointset/ground_pelvis/pelvis_list/speed	/jointset/ground_pelvis/pelvis_rotation/value	/jointset/ground_pelvis/pelvis_rotation/speed	/jointset/ground_pelvis/pelvis_tx/value	/jointset/ground_pelvis/pelvis_tx/speed	/jointset/ground_pelvis/pelvis_ty/value	/jointset/ground_pelvis/pelvis_ty/speed	/jointset/ground_pelvis/pelvis_tz/value	/jointset/ground_pelvis/pelvis_tz/speed	/jointset/hip_r/hip_angle_r/value	/jointset/hip_r/hip_angle_r/speed	/jointset/hip_r/hip_adduction_r/value	/jointset/hip_r/hip_adduction_r/speed	/jointset/hip_r/hip_rotation_r/value	/jointset/hip_r/hip_rotation_r/speed	/jointset/knee_r/knee_angle_r/value	/jointset/knee_r/knee_angle_r/speed	/jointset/knee_r/tib_tx_r/value	/jointset/knee_r/tib_tx_r/speed	/jointset/knee_r/tib_ty_r/value	/jointset/knee_r/tib_ty_r/speed	/jointset/tib_pat_r/pat_angle_r/value	/jointset/tib_pat_r/pat_angle_r/speed	/jointset/tib_pat_r/pat_tx_r/value	/jointset/tib_pat_r/pat_tx_r/speed	/jointset/tib_pat_r/pat_ty_r/value	/jointset/tib_pat_r/pat_ty_r/speed	/jointset/ankle_r/ankle_angle_r/value	/jointset/ankle_r/ankle_angle_r/speed	/jointset/subtalar_r/subtalar_angle_r/value	/jointset/subtalar_r/subtalar_angle_r/speed	/jointset/mtp_r/mtp_angle_r/value	/jointset/mtp_r/mtp_angle_r/speed	/forceset/bifemlh_r/activation	/forceset/bifemlh_r/fiber_length	/forceset/bifemsh_r/activation	/forceset/bifemsh_r/fiber_length	/forceset/glut_max2_r/activation	/forceset/glut_max2_r/fiber_length	/forceset/vas_int_r/activation	/forceset/vas_int_r/fiber_length	/forceset/med_gas_r/activation	/forceset/med_gas_r/fiber_length	/forceset/tib_ant_r/activation	/forceset/tib_ant_r/fiber_length
      0.23401565	   -122.49483306	   -480.13863232	    136.60123761	    527.30300068	      0.00000000	     -0.00000000	      0.00000000	      0.00000000	      0.00000000	      0.00000000	     -0.09000000	      0.00000000	     -0.05623795	      0.00000000	     -0.00000000	     -0.00000000	     51.99672863	   -203.13695797	      4.38474768	     -0.07089366	      0.78822919	     19.09956608	    -59.51949362	    233.34761556	      0.00477945	     -0.01640789	     -0.47581634	      0.07105463	     17.38690034	     -4.99687681	      0.04295622	      0.06893398	     -0.02294174	     -0.00856974	     22.04828820	     16.54380279	      0.00000000	      0.00000000	      0.00000000	      0.00000000	     -0.00468739	      0.13117361	     -0.00468739	      0.16639851	     -0.00468739	      0.13962064	     -0.00468739	      0.12925512	     -0.00468739	      0.14607134	     -0.00468739	      0.11659365
      0.23417799	   -122.57277640	   -480.13863232	    136.68682823	    527.19032690	      0.00000000	     -0.00000000	      0.00000000	      0.00000000	      0.00000000	      0.00000000	     -0.09000000	      0.00000000	     -0.05623795	      0.00000000	     -0.00000000	     -0.00000000	     51.96375909	   -203.05424205	      4.38473602	     -0.07271398	      0.79132868	     19.08670658	    -59.48163244	    233.10947298	      0.00477679	     -0.01644888	     -0.47580482	      0.07095875	     17.38608815	     -5.00948202	      0.04296740	      0.06884601	     -0.02294313	     -0.00856187	     22.05097742	     16.58791366	      0.00000000	      0.00000000	      0.00000000	      0.00000000	     -0.00470829	      0.13116078	     -0.00470829	      0.16641982	     -0.00470829	      0.13959830	     -0.00470829	      0.12922794	     -0.00470829	      0.14608490	     -0.00470829	      0.11659142
      0.23434046	   -122.65078416	   -480.13863232	    136.77247125	    527.07707660	      0.00000000	     -0.00000000	      0.00000000	      0.00000000	      0.00000000	      0.00000000	     -0.09000000	      0.00000000	     -0.05623795	      0.00000000	     -0.00000000	     -0.00000000	     51.93077578	   -202.97089354	      4.38472406	     -0.07452972	      0.79442863	     19.07376510	    -59.44377874	    232.87026846	      0.00477411	     -0.01648957	     -0.47579330	      0.07086256	     17.38527324	     -5.02205746	      0.04297858	      0.06875775	     -0.02294452	     -0.00855397	     22.05367602	     16.63187771	      0.00000000	      0.00000000	      0.00000000	      0.00000000	     -0.00472921	      0.13114794	     -0.00472921	      0.16644112	     -0.00472921	      0.13957594	     -0.00472921	      0.12920075	     -0.00472921	      0.14609846	     -0.00472921	      0.11658918
      0.23450307	   -122.72886150	   -480.13863232	    136.85817220	    526.96323872	      0.00000000	     -0.00000000	      0.00000000	      0.00000000	      0.00000000	      0.00000000	     -0.09000000	      0.00000000	     -0.05623795	      0.00000000	     -0.00000000	     -0.00000000	     51.89777666	   -202.88690404	      4.38471179	     -0.07634097	      0.79752924	     19.06074022	    -59.40593026	    232.62998125	      0.00477143	     -0.01652998	     -0.47578178	      0.07076607	     17.38445556	     -5.03460337	      0.04298975	      0.06866921	     -0.02294591	     -0.00854604	     22.05638416	     16.67569630	      0.00000000	      0.00000000	      0.00000000	      0.00000000	     -0.00475015	      0.13113508	     -0.00475015	      0.16646243	     -0.00475015	      0.13955356	     -0.00475015	      0.12917355	     -0.00475015	      0.14611201	     -0.00475015	      0.11658693
      0.23466582	   -122.80700598	   -480.13863232	    136.94392827	    526.84881318	      0.00000000	     -0.00000000	      0.00000000	      0.00000000	      0.00000000	      0.00000000	     -0.09000000	      0.00000000	     -0.05623795	      0.00000000	     -0.00000000	     -0.00000000	     51.86476289	   -202.80227324	      4.38469922	     -0.07814763	      0.80063038	     19.04763179	    -59.36808843	    232.38861391	      0.00476873	     -0.01657009	     -0.47577027	      0.07066928	     17.38363514	     -5.04711878	      0.04300092	      0.06858039	     -0.02294730	     -0.00853808	     22.05910176	     16.71936648	      0.00000000	      0.00000000	      0.00000000	      0.00000000	     -0.00477110	      0.13112221	     -0.00477110	      0.16648373	     -0.00477110	      0.13953115	     -0.00477110	      0.12914636	     -0.00477110	      0.14612556	     -0.00477110	      0.11658467
      0.23482873	   -122.88522430	   -480.13863232	    137.02974668	    526.73378649	      0.00000000	      0.00000000	      0.00000000	      0.00000000	      0.00000000	      0.00000000	     -0.09000000	      0.00000000	     -0.05623795	      0.00000000	     -0.00000000	     -0.00000000	     51.83173176	   -202.71699090	      4.38468634	     -0.07994981	      0.80373232	     19.03443809	    -59.33025026	    232.14614061	      0.00476603	     -0.01660990	     -0.47575877	      0.07057218	     17.38281191	     -5.05960419	      0.04301209	      0.06849127	     -0.02294869	     -0.00853008	     22.06182902	     16.76289038	      0.00000000	      0.00000000	      0.00000000	      0.00000000	     -0.00479208	      0.13110931	     -0.00479208	      0.16650504	     -0.00479208	      0.13950873	     -0.00479208	      0.12911915	     -0.00479208	      0.14613911	     -0.00479208	      0.11658240
      0.23499178	   -122.96350998	   -480.13863232	    137.11562018	    526.61816446	      0.00000000	      0.00000000	      0.00000000	      0.00000000	      0.00000000	      0.00000000	     -0.09000000	      0.00000000	     -0.05623795	      0.00000000	     -0.00000000	     -0.00000000	     51.79868614	   -202.63106106	      4.38467316	     -0.08174732	      0.80683476	     19.02115963	    -59.29241912	    231.90257635	      0.00476332	     -0.01664943	     -0.47574727	      0.07047477	     17.38198593	     -5.07205796	      0.04302325	      0.06840186	     -0.02295008	     -0.00852205	     22.06456571	     16.80626278	      0.00000000	      0.00000000	      0.00000000	      0.00000000	     -0.00481307	      0.13109640	     -0.00481307	      0.16652636	     -0.00481307	      0.13948628	     -0.00481307	      0.12909194	     -0.00481307	      0.14615266	     -0.00481307	      0.11658012
